<?xml version="1.0" encoding="utf-8"?>
<!-- Generator: Adobe Illustrator 22.0.0, SVG Export Plug-In . SVG Version: 6.00 Build 0)  -->
<svg version="1.1" id="Layer_1" xmlns="http://www.w3.org/2000/svg" xmlns:xlink="http://www.w3.org/1999/xlink" x="0px" y="0px"
	 viewBox="0 0 521.2 195.6" style="enable-background:new 0 0 521.2 195.6;" xml:space="preserve">
<style type="text/css">
	.st0{fill:#FFFFFF;}
</style>
<g>
	<path class="st0" d="M112.8,76.6v80.8h-4.9v-21c-3.3,6.3-8.1,11.3-14.3,15.2c-6.3,3.9-13.3,5.8-21,5.8c-5.6,0-10.9-1.1-15.8-3.2
		c-4.9-2.1-9.2-5-12.9-8.6c-3.6-3.6-6.5-7.9-8.6-12.7c-2.1-4.9-3.2-10.1-3.2-15.7c0-5.6,1.1-10.9,3.2-15.8s5-9.2,8.6-12.9
		c3.6-3.6,7.9-6.5,12.9-8.6c4.9-2.1,10.2-3.2,15.8-3.2c7.7,0,14.7,1.9,21,5.8c6.3,3.9,11,8.9,14.3,15.2v-21H112.8z M72.5,152.4
		c4.9,0,9.6-0.9,13.8-2.7c4.3-1.8,8-4.3,11.2-7.5s5.7-7,7.5-11.2c1.8-4.3,2.7-8.9,2.7-13.8c0-4.9-0.9-9.6-2.7-13.8
		c-1.8-4.3-4.3-8-7.5-11.2c-3.2-3.2-7-5.8-11.2-7.7c-4.3-1.9-8.9-2.8-13.8-2.8s-9.6,1-13.8,2.8c-4.3,1.9-8,4.4-11.2,7.7
		c-3.2,3.2-5.8,7-7.7,11.2c-1.9,4.3-2.8,8.9-2.8,13.8c0,4.9,0.9,9.6,2.8,13.8c1.9,4.3,4.4,8,7.7,11.2s7,5.7,11.2,7.5
		C63,151.5,67.6,152.4,72.5,152.4z"/>
	<path class="st0" d="M206.5,116.8v40.8h-4.9v-40.8c0-4.9-1-9.6-2.8-13.8c-1.9-4.3-4.4-8-7.7-11.2s-7-5.8-11.4-7.7
		c-4.4-1.9-9-2.8-14-2.8s-9.6,1-13.8,2.8c-4.3,1.9-8,4.4-11.2,7.7s-5.8,7-7.7,11.2c-1.9,4.3-2.8,8.9-2.8,13.8v40.5h-4.9V76.1h4.9
		v21.5c3.5-6.3,8.3-11.4,14.6-15.3c6.3-4,13.3-5.9,21-5.9c5.6,0,10.9,1.1,15.8,3.2c4.9,2.1,9.3,5.1,13,8.8s6.6,8,8.8,12.9
		C205.4,106,206.5,111.2,206.5,116.8z"/>
	<path class="st0" d="M204.5,48.9l13.8,4.2l6.2,14.6l-13.8-4.2L204.5,48.9z M226.2,38l5.9,14.6L226,67.2l-5.9-14.6L226.2,38z
		 M223.5,157.4V76.6h4.9v80.8H223.5z M247.8,48.9l-6.2,14.6l-14.1,4.2l6.2-14.6L247.8,48.9z"/>
	<path class="st0" d="M402.2,116.8v40.5h-4.9v-40.5c0-4.9-0.9-9.6-2.8-13.8c-1.9-4.3-4.4-8-7.7-11.2c-3.2-3.2-7-5.7-11.2-7.5
		c-4.3-1.8-8.9-2.7-13.8-2.7s-9.6,0.9-13.8,2.7c-4.3,1.8-8,4.3-11.2,7.5s-5.7,7-7.5,11.2c-1.8,4.3-2.7,8.9-2.7,13.8v40.5h-4.9v-40.5
		c0-4.9-1-9.6-2.8-13.8c-1.9-4.3-4.4-8-7.7-11.2s-7-5.7-11.2-7.5c-4.3-1.8-8.9-2.7-13.8-2.7s-9.6,0.9-13.8,2.7
		c-4.3,1.8-8,4.3-11.2,7.5s-5.7,7-7.5,11.2c-1.8,4.3-2.7,8.9-2.7,13.8v40.5h-4.9V76.6h4.9v21c3.5-6.3,8.3-11.3,14.5-15.2
		c6.2-3.9,13.1-5.8,20.9-5.8c8.7,0,16.6,2.4,23.5,7.3c6.9,4.9,11.8,11.2,14.6,19.2c2.8-7.9,7.6-14.3,14.5-19.2
		c6.8-4.9,14.6-7.3,23.4-7.3c5.6,0,10.8,1.1,15.7,3.2c4.9,2.1,9.1,5,12.9,8.6c3.7,3.6,6.6,7.9,8.8,12.7
		C401.1,106,402.2,111.2,402.2,116.8z"/>
	<path class="st0" d="M448.9,157.4c-5.6,0-10.9-1.1-15.8-3.2s-9.2-5.1-12.9-8.7c-3.6-3.7-6.5-8-8.6-12.8c-2.1-4.8-3.2-10.1-3.2-15.6
		c0-5.6,1.1-10.8,3.2-15.6c2.1-4.8,5-9.1,8.6-12.8c3.6-3.7,7.9-6.6,12.9-8.7c4.9-2.1,10.2-3.2,15.8-3.2c5.6,0,10.8,1.1,15.7,3.2
		c4.9,2.1,9.1,5.1,12.7,8.7c3.6,3.7,6.5,8,8.6,12.8c2.1,4.8,3.2,10.1,3.2,15.6c0,5.6-1.1,10.8-3.2,15.6c-2.1,4.8-5,9.1-8.6,12.8
		c-3.6,3.7-7.9,6.6-12.7,8.7C459.8,156.3,454.5,157.4,448.9,157.4z M448.9,81.5c-4.9,0-9.6,0.9-14,2.7c-4.4,1.8-8.2,4.3-11.4,7.5
		s-5.7,7-7.5,11.2c-1.8,4.3-2.7,8.9-2.7,13.8c0,4.9,0.9,9.6,2.7,13.8c1.8,4.3,4.3,8,7.5,11.2s7,5.8,11.4,7.7c4.4,1.9,9,2.8,14,2.8
		c4.9,0,9.6-0.9,13.8-2.8c4.3-1.9,8-4.4,11.2-7.7s5.7-7,7.5-11.2c1.8-4.3,2.7-8.9,2.7-13.8c0-4.9-0.9-9.6-2.7-13.8
		c-1.8-4.3-4.3-8-7.5-11.2s-7-5.7-11.2-7.5C458.5,82.4,453.9,81.5,448.9,81.5z"/>
</g>
</svg>
